PathFileType	4	(X/Y/Z)	C:\Users\israe\Desktop\Doctoral Research\Projects\PhaseIA\OPENSIM_october\ExperimentalData\subject1\100\P1S100W01.trc
DataRate	CameraRate	NumFrames	NumMarkers	Units	OrigDataRate	OrigDataStartFrame	OrigNumFrames
100.000000	100.000000	3	136	mm	100.000000	215	246
Frame#	Time	PELVIS_cgm24O			PELVIS_cgm24A			PELVIS_cgm24L			PELVIS_cgm24P			LFEMUR_cgm24O			LFEMUR_cgm24A			LFEMUR_cgm24L			LFEMUR_cgm24P			LTIBIA_cgm24O			LTIBIA_cgm24A			LTIBIA_cgm24L			LTIBIA_cgm24P			LFOOT_cgm24O			LFOOT_cgm24A			LFOOT_cgm24L			LFOOT_cgm24P			LTOES_cgm24O			LTOES_cgm24A			LTOES_cgm24L			LTOES_cgm24P			RFEMUR_cgm24O			RFEMUR_cgm24A			RFEMUR_cgm24L			RFEMUR_cgm24P			RTIBIA_cgm24O			RTIBIA_cgm24A			RTIBIA_cgm24L			RTIBIA_cgm24P			RFOOT_cgm24O			RFOOT_cgm24A			RFOOT_cgm24L			RFOOT_cgm24P			RTOES_cgm24O			RTOES_cgm24A			RTOES_cgm24L			RTOES_cgm24P			THORAX_cgm24O			THORAX_cgm24A			THORAX_cgm24L			THORAX_cgm24P			LUPPERARM_cgm24O			LUPPERARM_cgm24A			LUPPERARM_cgm24L			LUPPERARM_cgm24P			LFOREARM_cgm24O			LFOREARM_cgm24A			LFOREARM_cgm24L			LFOREARM_cgm24P			LHAND_cgm24O			LHAND_cgm24A			LHAND_cgm24L			LHAND_cgm24P			RUPPERARM_cgm24O			RUPPERARM_cgm24A			RUPPERARM_cgm24L			RUPPERARM_cgm24P			RFOREARM_cgm24O			RFOREARM_cgm24A			RFOREARM_cgm24L			RFOREARM_cgm24P			RHAND_cgm24O			RHAND_cgm24A			RHAND_cgm24L			RHAND_cgm24P			HEAD_cgm24O			HEAD_cgm24A			HEAD_cgm24L			HEAD_cgm24P			LFHD			RFHD			LBHD			RBHD			C7			T10			CLAV			STRN			RBAK			LSHO			LELB			LFRM			LWRA			LWRB			LFIN			RSHO			RELB			RFRM			RWRA			RWRB			RFIN			LASI			RASI			LPSI			RPSI			LTHI			LTHAP			LTHAD			LKNE			LTIB			LTIAP			LTIAD			LANK			LHEE			LTOE			LFMH			LVMH			RTHI			RTHAP			RTHAD			RKNE			RTIB			RTIAP			RTIAD			RANK			RHEE			RTOE			RFMH			RVMH			RPel			LPel			LMEL			RMEL			LHJC_cgm24			RHJC_cgm24			LKJC_cgm24			RKJC_cgm24			LAJC_cgm24			RAJC_cgm24			LFJC_cgm24			RFJC_cgm24			LSJC_cgm24			RSJC_cgm24			LEJC_cgm24			REJC_cgm24			LHO_cgm24			RHO_cgm24			CentreOfMass_cgm24			
		X1	Y1	Z1	X2	Y2	Z2	X3	Y3	Z3	X4	Y4	Z4	X5	Y5	Z5	X6	Y6	Z6	X7	Y7	Z7	X8	Y8	Z8	X9	Y9	Z9	X10	Y10	Z10	X11	Y11	Z11	X12	Y12	Z12	X13	Y13	Z13	X14	Y14	Z14	X15	Y15	Z15	X16	Y16	Z16	X17	Y17	Z17	X18	Y18	Z18	X19	Y19	Z19	X20	Y20	Z20	X21	Y21	Z21	X22	Y22	Z22	X23	Y23	Z23	X24	Y24	Z24	X25	Y25	Z25	X26	Y26	Z26	X27	Y27	Z27	X28	Y28	Z28	X29	Y29	Z29	X30	Y30	Z30	X31	Y31	Z31	X32	Y32	Z32	X33	Y33	Z33	X34	Y34	Z34	X35	Y35	Z35	X36	Y36	Z36	X37	Y37	Z37	X38	Y38	Z38	X39	Y39	Z39	X40	Y40	Z40	X41	Y41	Z41	X42	Y42	Z42	X43	Y43	Z43	X44	Y44	Z44	X45	Y45	Z45	X46	Y46	Z46	X47	Y47	Z47	X48	Y48	Z48	X49	Y49	Z49	X50	Y50	Z50	X51	Y51	Z51	X52	Y52	Z52	X53	Y53	Z53	X54	Y54	Z54	X55	Y55	Z55	X56	Y56	Z56	X57	Y57	Z57	X58	Y58	Z58	X59	Y59	Z59	X60	Y60	Z60	X61	Y61	Z61	X62	Y62	Z62	X63	Y63	Z63	X64	Y64	Z64	X65	Y65	Z65	X66	Y66	Z66	X67	Y67	Z67	X68	Y68	Z68	X69	Y69	Z69	X70	Y70	Z70	X71	Y71	Z71	X72	Y72	Z72	X73	Y73	Z73	X74	Y74	Z74	X75	Y75	Z75	X76	Y76	Z76	X77	Y77	Z77	X78	Y78	Z78	X79	Y79	Z79	X80	Y80	Z80	X81	Y81	Z81	X82	Y82	Z82	X83	Y83	Z83	X84	Y84	Z84	X85	Y85	Z85	X86	Y86	Z86	X87	Y87	Z87	X88	Y88	Z88	X89	Y89	Z89	X90	Y90	Z90	X91	Y91	Z91	X92	Y92	Z92	X93	Y93	Z93	X94	Y94	Z94	X95	Y95	Z95	X96	Y96	Z96	X97	Y97	Z97	X98	Y98	Z98	X99	Y99	Z99	X100	Y100	Z100	X101	Y101	Z101	X102	Y102	Z102	X103	Y103	Z103	X104	Y104	Z104	X105	Y105	Z105	X106	Y106	Z106	X107	Y107	Z107	X108	Y108	Z108	X109	Y109	Z109	X110	Y110	Z110	X111	Y111	Z111	X112	Y112	Z112	X113	Y113	Z113	X114	Y114	Z114	X115	Y115	Z115	X116	Y116	Z116	X117	Y117	Z117	X118	Y118	Z118	X119	Y119	Z119	X120	Y120	Z120	X121	Y121	Z121	X122	Y122	Z122	X123	Y123	Z123	X124	Y124	Z124	X125	Y125	Z125	X126	Y126	Z126	X127	Y127	Z127	X128	Y128	Z128	X129	Y129	Z129	X130	Y130	Z130	X131	Y131	Z131	X132	Y132	Z132	X133	Y133	Z133	X134	Y134	Z134	X135	Y135	Z135	X136	Y136	Z136	

216	2.15	248.2910003662109	892.6569824218749	1393.569946289063	237.2949829101563	877.4077758789061	1564.200317382813	419.3412475585938	882.2597045898436	1403.663818359375	257.7290649414063	1063.324951171875	1409.4306640625	341.2109985351563	494.178009033203	1544.319946289063	307.8883972167969	638.5425415039061	1936.981567382813	759.504638671875	512.6376953124999	1573.030883789063	333.8159790039063	887.8183593749999	1398.968017578125	336.1629943847656	123.2190017700194	1677.31005859375	414.5369873046875	252.6236877441405	2041.226806640625	722.3695678710938	92.10964202880849	1605.197875976563	341.2112121582031	494.1773681640624	1544.314208984375	332.6189880371094	71.4176025390624	1614.339965820313	336.2958374023438	275.9423217773436	1521.41064453125	557.025146484375	63.77177810668935	1606.391357421875	322.2209167480469	-21.26963043212899	1409.936645507813	340.0029907226563	130.5939941406249	1743.400024414063	340.0029907226563	130.5939941406249	1743.400024414063	340.0029907226563	130.5939941406249	1743.400024414063	340.0029907226563	130.5939941406249	1743.400024414063	197.6100006103516	490.4400024414062	1300.47998046875	240.3699035644531	406.4046630859374	1707.552734375	611.8032836914063	533.3588867187499	1265.832153320313	162.7662353515625	897.4960327148436	1388.171875	244.4530029296875	107.938003540039	1191.97998046875	171.3266448974609	-7.736373901367283	1568.20654296875	635.263427734375	132.1404724121093	1275.382202148438	197.6103820800781	490.4404907226562	1300.479248046875	254.8139953613281	82.53649902343743	1115.969970703125	242.2233581542969	307.8027343749999	1120.822387695313	474.6449584960938	93.75158691406243	1165.724365234375	304.23828125	90.0393447875976	895.9066162109375	229.72900390625	82.19819641113274	1256.68994140625	229.72900390625	82.19819641113274	1256.68994140625	229.72900390625	82.19819641113274	1256.68994140625	229.72900390625	82.19819641113274	1256.68994140625	258.3160095214844	1418.47998046875	1438.349975585938	247.0612335205078	1461.257690429687	1908.250732421875	-213.4921875	1411.685546875	1427.66796875	264.1123352050781	948.4936523437499	1481.2744140625	497.5260009765625	1128.630004882813	1319.2099609375	470.7127685546875	1181.324462890625	1053.211669921875	229.1780700683594	1085.02783203125	1337.622436523438	458.523193359375	1392.396850585938	1375.393920898438	543.81201171875	883.8229980468749	1414.069946289063	542.4442749023438	787.0502929687499	1164.972900390625	280.6361694335938	841.0614013671874	1432.127563476563	497.4141540527344	1129.225952148438	1318.987060546875	539.7109985351563	816.3200073242186	1435.699951171875	647.0679931640625	841.2991333007811	1533.9921875	640.7684326171875	777.9352416992186	1335.077514648438	548.2390747070313	956.7248535156249	1390.704223632813	-2.057300090789795	1119.5	1354.510009765625	-29.54845809936523	1136.969482421875	1089.101196289063	-260.6903076171875	1180.036865234375	1385.283935546875	60.03923797607422	1379.370849609375	1365.182983398438	-23.78650093078613	928.6770019531249	1547.260009765625	-89.47121429443359	744.5023803710936	1357.525634765625	-287.3126220703125	990.3590698242186	1578.616333007813	-2.028467178344727	1119.750122070313	1354.25341796875	-34.11349868774414	875.6719970703124	1603.619995117188	-136.7169494628906	977.6189575195311	1680.688842773438	91.83348083496094	939.5645751953124	1686.778564453125	-12.43054962158203	986.9591064453124	1485.276000976563	240.7209930419922	1675.260009765625	1378.089965820313	239.1045532226563	1687.090454101563	1430.265747070313	293.9492492675781	1680.871948242188	1378.466552734375	235.3337554931641	1727.158325195313	1366.155517578125	309.98779296875	1695.347412109375	1425.742797851563	167.9688110351563	1681.869140625	1425.002075195313	333.667724609375	1672.179931640625	1331.306274414063	151.2593078613281	1651.620849609375	1330.327758789063	257.111572265625	1505.845336914063	1314.809814453125	265.8117370605469	1147.718994140625	1279.555419921875	258.20947265625	1418.890991210938	1442.825805664063	255.9535217285156	1254.712280273438	1525.77587890625	140.1116943359375	1347.014282226563	1259.421630859375	457.7736206054688	1444.257690429688	1371.782836914063	532.017333984375	1130.916259765625	1332.4130859375	543.8605346679688	1002.827880859375	1408.366333007813	531.5905151367188	885.4364624023436	1435.980834960938	562.5231323242188	885.6231079101561	1397.3701171875	550.2522583007813	818.7722778320311	1445.354858398438	57.970947265625	1427.140502929688	1359.1875	-35.28528594970703	1126.840454101563	1369.03076171875	-40.70424270629883	1029.926391601563	1482.32470703125	-3.714758396148682	942.7969970703124	1564.844970703125	-49.53235626220703	919.9272460937499	1534.140380859375	-43.19114303588867	884.6918334960936	1610.444946289063	366.7306213378906	965.0383300781249	1459.70703125	127.4504165649414	971.1109008789061	1449.476928710938	300.3561706542969	979.0930175781249	1279.935913085938	224.2240905761719	986.4804077148436	1277.970092773438	422.9699401855469	665.0363159179686	1483.922485351563	356.1361999511719	776.7114868164061	1542.649291992188	351.9392700195313	679.7080688476561	1574.642211914063	390.3163757324219	500.2096557617186	1550.595947265625	397.531494140625	325.8909606933593	1601.35009765625	345.359619140625	391.479522705078	1639.532958984375	348.1697387695313	291.7616271972655	1664.503051757813	374.232666015625	114.1712722778319	1671.19970703125	332.6967163085938	65.34729766845693	1613.738525390625	344.2798767089844	142.3020172119139	1766.914672851563	318.6663208007813	141.7626495361327	1822.280639648438	404.6018371582031	108.5909500122069	1799.912475585938	88.45067596435547	715.4907836914061	1354.31201171875	139.8864440917969	765.6430664062499	1458.789794921875	161.5529174804688	671.2367553710936	1435.901123046875	147.2605895996094	497.9927062988281	1303.742431640625	164.5480804443359	280.0632324218749	1250.501586914063	199.5825805664063	352.2164916992187	1316.326293945313	215.6228637695313	220.3959045410155	1276.355346679688	206.4884033203125	104.8381729125976	1185.792236328125	254.71533203125	78.66721343994134	1116.668701171875	225.0488586425781	76.31920623779288	1288.625122070313	251.6133880615234	51.1605911254882	1329.93310546875	164.0213317871094	47.64250564575187	1286.641967773438	84.69153594970703	996.6574707031249	1344.658325195313	426.849853515625	985.7569580078124	1371.5810546875	465.3569946289063	1117.340209960938	1330.427490234375	25.30352973937988	1100.1689453125	1353.9365234375	333.8160095214844	887.8179931640624	1398.9599609375	162.7660064697266	897.4959716796874	1388.170043945313	341.2109985351563	494.178009033203	1544.319946289063	197.6100006103516	490.4400024414062	1300.47998046875	336.1629943847656	123.2190017700194	1677.31005859375	244.4530029296875	107.938003540039	1191.97998046875	340.0029907226563	130.5939941406249	1743.400024414063	229.72900390625	82.19819641113274	1256.68994140625	456.7720031738281	1404.239990234375	1377.920043945313	61.94260025024414	1387.329956054688	1365.510009765625	497.5260009765625	1128.630004882813	1319.2099609375	-2.057300090789795	1119.5	1354.510009765625	539.7109985351563	816.3200073242186	1435.699951171875	-34.11349868774414	875.6719970703124	1603.619995117188	261.7439880371094	1000.329956054687	1391.180053710938	
217	2.16	247.9709930419922	889.7420043945311	1406.410034179688	236.760498046875	873.8415527343749	1576.967041015625	418.9249267578125	877.8981323242186	1416.54248046875	258.7999877929688	1060.256225585938	1423.018310546875	339.6329956054688	490.6520080566405	1557.5400390625	311.8817443847656	635.6828002929686	1950.389404296875	758.3529052734375	506.0739440917968	1581.425415039063	333.4512023925781	884.1781616210936	1411.822631835938	333.8110046386719	125.6510009765624	1706.079956054688	417.0304565429688	269.7188415527343	2063.350830078125	718.9915771484375	89.00749206542959	1631.1357421875	339.6332702636719	490.6512145996093	1557.5390625	329.5180053710938	71.00399780273428	1645.609985351563	333.234619140625	270.9578857421874	1543.216796875	553.7890014648438	61.78473281860342	1635.746948242188	316.5387878417969	-31.04103851318368	1445.864868164063	338.3739929199219	136.074005126953	1771.719970703125	338.3739929199219	136.074005126953	1771.719970703125	338.3739929199219	136.074005126953	1771.719970703125	338.3739929199219	136.074005126953	1771.719970703125	197.8619995117188	489.6900024414062	1307.06005859375	240.0658416748047	399.3970947265624	1712.848999023438	612.0677490234375	533.5267333984374	1273.734985351563	162.4917602539063	895.3057861328124	1400.9931640625	244.4969940185547	108.8659973144531	1192.719970703125	171.7787475585938	-12.4797134399415	1567.2353515625	635.4083251953125	131.7253265380859	1276.0283203125	197.8612670898438	489.6903991699218	1307.0546875	254.9049835205078	83.88970184326165	1116.579956054688	242.9237213134766	309.1568908691406	1122.75244140625	474.6855163574219	94.20448303222649	1166.750366210938	304.7037963867188	92.56481933593744	896.6441040039063	229.5989990234375	82.78289794921868	1257.260009765625	229.5989990234375	82.78289794921868	1257.260009765625	229.5989990234375	82.78289794921868	1257.260009765625	229.5989990234375	82.78289794921868	1257.260009765625	259.1889953613281	1416.199951171875	1451.420043945313	248.4261932373047	1459.26123046875	1921.306396484375	-212.6365966796875	1409.945434570313	1441.18603515625	264.4821472167969	946.2320556640624	1494.610107421875	497.885986328125	1126.260009765625	1331.349975585938	469.3612060546875	1179.260131835938	1065.590454101563	229.6571350097656	1082.668579101563	1351.446411132813	459.280029296875	1389.967407226563	1388.08447265625	544.7449951171875	881.1019897460936	1425	541.638671875	785.2241821289061	1175.57275390625	281.68603515625	838.3505859374999	1444.709350585938	497.7716674804688	1126.857788085938	1331.118408203125	540.9769897460938	813.4810180664061	1446.469970703125	649.239990234375	838.3502197265624	1543.791625976563	641.1200561523438	775.6010742187499	1344.748168945313	548.8098754882813	954.0423583984374	1401.838012695313	-2.200659990310669	1117.589965820313	1369.180053710938	-30.60550308227539	1134.07080078125	1103.80419921875	-260.5232543945313	1179.0869140625	1400.649169921875	60.77034378051758	1377.299926757813	1378.56884765625	-23.5984992980957	928.2399902343749	1563.56005859375	-90.64860534667969	742.8035888671874	1375.5400390625	-286.8084716796875	990.9002685546874	1595.62451171875	-2.180706024169922	1117.768188476563	1368.998413085938	-33.95080184936523	875.8670043945311	1620.599975585938	-136.1281127929688	978.9545898437499	1696.711791992188	92.33615112304688	940.3795776367186	1702.75830078125	-12.23311805725098	985.7366333007811	1500.945190429688	241.7559967041016	1673.119995117188	1391.089965820313	240.1969604492188	1684.963134765625	1443.2646484375	294.9884338378906	1678.695434570313	1391.4150390625	236.3930511474609	1725.019287109375	1379.149047851563	311.0841064453125	1693.1845703125	1438.67041015625	169.05126953125	1679.783447265625	1438.054077148438	334.6723937988281	1669.9736328125	1344.251098632813	152.2173309326172	1649.530883789063	1343.397827148438	257.9248962402344	1503.689208984375	1327.758544921875	266.22119140625	1145.475952148438	1292.717163085938	259.0860900878906	1416.612060546875	1455.90185546875	256.6786499023438	1252.260009765625	1538.957275390625	140.6220245361328	1344.682739257813	1272.675903320313	458.5763549804688	1441.768432617188	1384.447265625	532.4351806640625	1128.5107421875	1344.400390625	544.771728515625	1000.188781738281	1419.802001953125	532.7177734375	882.6126708984374	1447.044189453125	563.3093872070313	882.9822998046874	1408.140625	551.6060791015625	815.9233398437499	1456.029296875	58.74890899658203	1425.022338867188	1372.524047851563	-35.37329864501953	1125.113403320313	1383.741455078125	-40.52683258056641	1029.03076171875	1497.818969726563	-3.45409369468689	942.4804687499999	1580.970092773438	-49.39762878417969	919.4125366210936	1550.593872070313	-42.99075317382813	884.9876708984374	1627.332397460938	367.0427551269531	962.3878173828124	1473.05810546875	127.5844650268555	968.7656249999999	1462.7138671875	300.7911682128906	976.5825195312499	1293.28759765625	224.8086395263672	984.3315429687499	1291.280151367188	422.3849182128906	661.1987915039061	1495.023071289063	356.4176635742188	773.0281372070311	1555.011474609375	351.7417907714844	676.2365722656249	1586.38720703125	388.8482055664063	497.4373474121093	1563.702026367188	395.6818237304688	324.3910217285155	1620.809814453125	343.822021484375	391.5944519042968	1657.109497070313	346.5182800292969	292.8180236816405	1685.872924804688	371.7913208007813	115.2812957763671	1699.962158203125	329.6361083984375	63.79964828491201	1645.724365234375	342.8424987792969	148.2303771972655	1794.8857421875	317.7867126464844	150.6698303222655	1850.601318359375	403.3480529785156	115.9383010864257	1829.07275390625	88.54283905029297	714.1680908203124	1364.110473632813	139.6534729003906	763.0548095703124	1469.770629882813	161.4483184814453	668.7934570312499	1445.50927734375	147.4640197753906	497.3039855957031	1310.251098632813	164.8191375732422	280.0118408203124	1253.8076171875	199.8485717773438	351.2436218261718	1320.680419921875	215.8484497070313	219.9505310058593	1278.81005859375	206.5812072753906	105.6058502197265	1186.530517578125	254.7696990966797	79.50432586669915	1117.015258789063	224.9722137451172	76.3564910888671	1289.08447265625	251.4806976318359	51.14494705200187	1330.053344726563	163.9847717285156	47.64652633666984	1286.817504882813	84.98848724365234	994.4609374999999	1357.600708007813	427.2000427246094	982.6610107421874	1384.697875976563	465.7432861328125	1114.900268554688	1342.903930664063	25.11759567260742	1098.077758789063	1368.597412109375	333.4509887695313	884.1779785156249	1411.819946289063	162.4920043945313	895.3060302734374	1400.989990234375	339.6329956054688	490.6520080566405	1557.5400390625	197.8619995117188	489.6900024414062	1307.06005859375	333.8110046386719	125.6510009765624	1706.079956054688	244.4969940185547	108.8659973144531	1192.719970703125	338.3739929199219	136.074005126953	1771.719970703125	229.5989990234375	82.78289794921868	1257.260009765625	457.5539855957031	1401.760009765625	1390.619995117188	62.6879997253418	1385.2099609375	1378.849975585938	497.885986328125	1126.260009765625	1331.349975585938	-2.200659990310669	1117.589965820313	1369.180053710938	540.9769897460938	813.4810180664061	1446.469970703125	-33.95080184936523	875.8670043945311	1620.599975585938	261.9880065917969	998.2020263671874	1403.989990234375	
218	2.17	247.7839965820313	886.8880004882811	1419.43994140625	236.3688659667969	870.3948364257811	1589.927001953125	418.6494750976563	873.8681640624999	1429.620849609375	259.7364807128906	1057.260009765625	1436.722290039063	338.0950012207031	487.4349975585936	1571.260009765625	315.8901977539063	633.3760375976561	1964.124877929688	757.162841796875	499.7415161132811	1590.374267578125	333.2216796875	880.7343749999999	1424.882080078125	331.3389892578125	127.7649993896483	1732.239990234375	419.1369323730469	283.3514404296874	2083.534423828125	715.486572265625	85.8795166015624	1654.781982421875	338.0953063964844	487.4342041015624	1571.255859375	326.2019958496094	70.83350372314443	1673.97998046875	330.0071411132813	266.6242370605468	1563.838012695313	550.3115234375	59.92527770996084	1662.331787109375	310.7038879394531	-38.83301544189462	1478.4990234375	336.6029968261719	140.7089996337889	1797.369995117188	336.6029968261719	140.7089996337889	1797.369995117188	336.6029968261719	140.7089996337889	1797.369995117188	336.6029968261719	140.7089996337889	1797.369995117188	198.1130065917969	488.8720092773437	1314.160034179688	239.5841827392578	392.6283264160155	1718.654663085938	612.3587646484375	533.4039916992186	1282.284912109375	162.34619140625	893.0411376953124	1413.993286132813	244.4640045166016	109.9509963989257	1193.56005859375	172.2563018798828	-17.46808624267588	1566.152221679688	635.50390625	131.3364868164062	1276.65625	198.1134796142578	488.8725585937499	1314.161010742188	254.927001953125	85.51190185546868	1117.25	243.5599060058594	310.7587280273437	1125.098388671875	474.673828125	94.84153747558587	1167.759643554688	305.0175170898438	95.69853210449213	897.4453125	229.4160003662109	83.42510223388665	1257.880004882813	229.4160003662109	83.42510223388665	1257.880004882813	229.4160003662109	83.42510223388665	1257.880004882813	229.4160003662109	83.42510223388665	1257.880004882813	260.114990234375	1413.920043945313	1464.550048828125	249.8849792480469	1457.375244140625	1934.411865234375	-211.7279052734375	1408.224609375	1454.803833007813	264.8875427246094	943.9812622070311	1508.1162109375	498.2560119628906	1123.829956054688	1343.72998046875	468.1306762695313	1176.99951171875	1078.181030273438	230.1401977539063	1080.313720703125	1365.433471679688	460.0831604003906	1387.515625	1400.857055664063	545.593994140625	878.3200073242186	1436.260009765625	540.8051147460938	783.2777099609374	1186.539794921875	282.6458435058594	835.6425781249999	1457.54541015625	498.14404296875	1124.412963867188	1343.508178710938	542.1209716796875	810.5830078124999	1457.5400390625	651.2157592773438	835.2894287109374	1553.97021484375	641.404052734375	773.2081909179686	1354.79345703125	549.3360595703125	951.3081665039061	1413.322021484375	-2.185590028762817	1115.660034179688	1383.819946289063	-31.37791633605957	1131.2041015625	1118.47314453125	-260.230712890625	1178.020141601563	1415.862060546875	61.55826950073242	1375.221923828125	1392.012329101563	-23.34659957885742	927.5300292968749	1579.530029296875	-91.57345581054688	741.0849609374999	1392.936279296875	-286.2737426757813	991.0698242187499	1612.178588867188	-2.1728515625	1115.771484375	1383.696533203125	-33.74869918823242	875.6939697265624	1637.140014648438	-135.4902954101563	979.7988281249999	1712.446655273438	92.87464904785156	940.6318969726561	1718.441040039063	-11.94410514831543	984.3471679687499	1516.395141601563	242.8399963378906	1670.9599609375	1404.119995117188	241.3339538574219	1682.82421875	1456.291381835938	296.0762939453125	1676.501098632813	1404.396606445313	237.5002746582031	1722.858154296875	1392.163696289063	312.2254028320313	1691.003173828125	1451.62158203125	170.1785430908203	1677.678466796875	1451.125244140625	335.7313232421875	1667.7412109375	1357.2314453125	153.2272644042969	1647.413208007813	1356.485717773438	258.7934875488281	1501.498413085938	1340.740600585938	266.6564025878906	1143.188720703125	1306.00341796875	260.0169067382813	1414.326538085938	1469.033935546875	257.4614868164063	1249.833251953125	1552.243286132813	141.2026519775391	1342.311645507813	1285.9755859375	459.4338073730469	1439.242553710938	1397.177124023438	532.8552856445313	1126.037719726563	1356.64599609375	545.6237182617188	997.4926147460936	1431.525512695313	533.74462890625	879.7327880859374	1458.40673828125	564.02294921875	880.2759399414061	1419.23583984375	552.831787109375	813.0090332031249	1467.013549804688	59.58121871948242	1422.87744140625	1385.904663085938	-35.30549240112305	1123.331298828125	1398.416259765625	-40.25428009033203	1027.947265625	1513.13525390625	-3.132343053817749	941.8574829101561	1596.794799804688	-49.19508361816406	918.6515502929686	1566.702270507813	-42.75011444091797	884.9048461914061	1643.796142578125	367.3879089355469	959.7592163085936	1486.593383789063	127.7648544311523	966.4132690429686	1476.118774414063	301.2411804199219	974.0527343749999	1306.802124023438	225.3992156982422	982.1419067382811	1304.752319335938	421.8138427734375	657.5296020507811	1506.59326171875	356.7486267089844	769.5438842773436	1567.7099609375	351.5812377929688	672.9965209960936	1598.536743164063	387.4454345703125	494.785919189453	1577.102661132813	393.8155822753906	322.9478454589843	1639.482421875	342.3065795898438	391.4976806640624	1674.263793945313	344.8222961425781	293.5818786621093	1706.096435546875	369.1930236816406	116.2290115356444	1726.10302734375	326.3279418945313	62.73183441162099	1674.739868164063	341.2591552734375	153.2428131103514	1820.2431640625	316.8056030273438	158.2275543212889	1876.174926757813	401.969970703125	122.1237411499022	1855.229370117188	88.66441345214844	712.8004150390624	1374.23876953125	139.4492797851563	760.4784545898436	1481.014892578125	161.3743896484375	666.3589477539061	1455.44482421875	147.6875762939453	496.5651550292968	1317.275512695313	165.0642395019531	280.0158386230468	1257.417724609375	200.0882110595703	350.2064208984374	1325.43359375	216.0553131103516	219.5374603271484	1281.465209960938	206.5967559814453	106.5118026733398	1187.328369140625	254.7577667236328	80.55071258544915	1117.360473632813	224.8592987060547	76.39305114746085	1289.57763671875	251.3010864257813	51.15282058715812	1330.222412109375	163.9197998046875	47.62294769287102	1287.013916015625	85.29468536376953	992.2319335937499	1370.722778320313	427.5787963867188	979.5925903320311	1397.994384765625	466.1324462890625	1112.40283203125	1355.612182617188	25.10033988952637	1095.964111328125	1383.241943359375	333.2210083007813	880.7349853515624	1424.880004882813	162.3470001220703	893.0410156249999	1413.989990234375	338.0950012207031	487.4349975585936	1571.260009765625	198.1130065917969	488.8720092773437	1314.160034179688	331.3389892578125	127.7649993896483	1732.239990234375	244.4640045166016	109.9509963989257	1193.56005859375	336.6029968261719	140.7089996337889	1797.369995117188	229.4160003662109	83.42510223388665	1257.880004882813	458.3869934082031	1399.22998046875	1403.390014648438	63.48720169067383	1383.069946289063	1392.260009765625	498.2560119628906	1123.829956054688	1343.72998046875	-2.185590028762817	1115.660034179688	1383.819946289063	542.1209716796875	810.5830078124999	1457.5400390625	-33.74869918823242	875.6939697265624	1637.140014648438	262.2529907226563	996.0780029296874	1416.869995117188	
